<svg width="68" height="81" viewBox="0 0 68 81" fill="none" xmlns="http://www.w3.org/2000/svg">
<path d="M67.2601 42.4051C67.2601 60.3439 52.3855 74.9051 34.0131 74.9051C15.6407 74.9051 0.766113 60.3439 0.766113 42.4051C0.766113 24.4663 15.6407 9.90509 34.0131 9.90509C52.3855 9.90509 67.2601 24.4663 67.2601 42.4051Z" fill="#FFE6A5" stroke="#1C1F35"/>
<path d="M50.6463 13.9051C50.6463 21.0506 44.3971 26.9051 36.6091 26.9051C28.8211 26.9051 22.5719 21.0506 22.5719 13.9051C22.5719 6.7596 28.8211 0.90509 36.6091 0.90509C44.3971 0.90509 50.6463 6.7596 50.6463 13.9051Z" fill="#FFE6A5" stroke="#1C1F35"/>
<path d="M63.1067 66.9051C63.1067 74.0506 56.8575 79.9051 49.0695 79.9051C41.2815 79.9051 35.0323 74.0506 35.0323 66.9051C35.0323 59.7596 41.2815 53.9051 49.0695 53.9051C56.8575 53.9051 63.1067 59.7596 63.1067 66.9051Z" fill="#FFE6A5" stroke="#1C1F35"/>
<path d="M36.6362 21.3355C40.7752 21.3355 44.1305 18.1041 44.1305 14.1181C44.1305 10.132 40.7752 6.9007 36.6362 6.9007C32.4972 6.9007 29.1419 10.132 29.1419 14.1181C29.1419 18.1041 32.4972 21.3355 36.6362 21.3355Z" stroke="#1C1F35" stroke-linecap="round" stroke-linejoin="round"/>
<path d="M29.7183 11.8973H43.554" stroke="#1C1F35" stroke-linecap="round" stroke-linejoin="round"/>
<path d="M29.7183 16.3387H43.554" stroke="#1C1F35" stroke-linecap="round" stroke-linejoin="round"/>
<path d="M36.6362 20.7803C38.2281 20.7803 39.5186 17.7975 39.5186 14.1181C39.5186 10.4386 38.2281 7.45587 36.6362 7.45587C35.0443 7.45587 33.7538 10.4386 33.7538 14.1181C33.7538 17.7975 35.0443 20.7803 36.6362 20.7803Z" stroke="#1C1F35" stroke-linecap="round" stroke-linejoin="round"/>
<path d="M45.9679 47.7918L57.8223 40.8794" stroke="#1C1F35" stroke-linecap="round" stroke-linejoin="round"/>
<path d="M44.0283 48.7859L38.6655 51.7677" stroke="#1C1F35" stroke-linecap="round" stroke-linejoin="round"/>
<path d="M10.1518 47.3982L18.1637 54.6318C19.2321 55.5974 20.5951 56.2047 22.0501 56.3635C23.5051 56.5223 24.9744 56.2239 26.2395 55.5129L58.4148 37.4803L54.462 32.8083C53.4337 31.5973 51.9902 30.781 50.3922 30.5066C48.7943 30.2323 47.1472 30.5181 45.7487 31.3124L36.3129 36.6607L23.5617 32.5624L20.0552 34.0173C19.7928 34.1257 19.563 34.296 19.3869 34.5126C19.2108 34.7292 19.0941 34.985 19.0475 35.2565C19.0009 35.528 19.026 35.8065 19.1204 36.0662C19.2148 36.3259 19.3755 36.5586 19.5876 36.7426L26.112 42.3983L20.1614 45.677L14.2109 43.218L10.6406 44.6934C10.3808 44.8009 10.153 44.9693 9.97771 45.1832C9.80242 45.397 9.68521 45.6497 9.63669 45.9182C9.58816 46.1867 9.60985 46.4627 9.69979 46.7211C9.78973 46.9796 9.94508 47.2123 10.1518 47.3982V47.3982Z" stroke="#1C1F35" stroke-linecap="round" stroke-linejoin="round"/>
<path d="M23.8874 53.0628L35.7417 46.1504" stroke="#1C1F35" stroke-linecap="round" stroke-linejoin="round"/>
<path d="M55.8324 70.7442V64.0838C55.8319 63.9876 55.805 63.8932 55.7544 63.8102C55.7038 63.7272 55.6314 63.6584 55.5444 63.6109L49.3615 60.2672C49.2782 60.2209 49.1837 60.1966 49.0875 60.1966C48.9913 60.1966 48.8968 60.2209 48.8135 60.2672L42.6307 63.6109C42.5437 63.6584 42.4713 63.7272 42.4207 63.8102C42.3701 63.8932 42.3432 63.9876 42.3427 64.0838V70.7442C42.3432 70.8404 42.3701 70.9348 42.4207 71.0178C42.4713 71.1008 42.5437 71.1695 42.6307 71.2171L48.8135 74.5608C48.8968 74.607 48.9913 74.6314 49.0875 74.6314C49.1837 74.6314 49.2782 74.607 49.3615 74.5608L55.5444 71.2171C55.6314 71.1695 55.7038 71.1008 55.7544 71.0178C55.805 70.9348 55.8319 70.8404 55.8324 70.7442V70.7442Z" stroke="#1C1F35" stroke-linecap="round" stroke-linejoin="round"/>
<path d="M55.8324 63.8053L49.1515 67.414L42.3427 63.8053" stroke="#1C1F35" stroke-linecap="round" stroke-linejoin="round"/>
<path d="M49.0875 67.4139V74.6313" stroke="#1C1F35" stroke-linecap="round" stroke-linejoin="round"/>
</svg>
