<svg width="64" height="64" viewBox="0 0 64 64" fill="none" xmlns="http://www.w3.org/2000/svg">
<circle cx="32.0568" cy="31.82" r="31.5" fill="url(#paint0_linear_5_117)"/>
<path d="M32.5568 20.32C39.1842 20.32 44.5568 25.6926 44.5568 32.32C44.5568 38.9474 39.1842 44.32 32.5568 44.32C25.9293 44.32 20.5568 38.9474 20.5568 32.32C20.5568 25.6926 25.9293 20.32 32.5568 20.32Z" stroke="#1C1F35" stroke-width="2" stroke-linecap="round" stroke-linejoin="round"/>
<path d="M21.5568 36.32H43.5568" stroke="#1C1F35" stroke-width="2" stroke-linecap="round" stroke-linejoin="round"/>
<path d="M21.5568 28.32H43.5568" stroke="#1C1F35" stroke-width="2" stroke-linecap="round" stroke-linejoin="round"/>
<path d="M32.5568 20.32C34.7659 20.32 36.5568 25.6926 36.5568 32.32C36.5568 38.9474 34.7659 44.32 32.5568 44.32C30.3476 44.32 28.5568 38.9474 28.5568 32.32C28.5568 25.6926 30.3476 20.32 32.5568 20.32Z" stroke="#1C1F35" stroke-width="2" stroke-linecap="round" stroke-linejoin="round"/>
<defs>
<linearGradient id="paint0_linear_5_117" x1="-1.22932" y1="13.97" x2="78.0252" y2="19.5982" gradientUnits="userSpaceOnUse">
<stop stop-color="#FFB629"/>
<stop offset="0.507189" stop-color="#FFDA56"/>
<stop offset="1" stop-color="#FFD7A6"/>
</linearGradient>
</defs>
</svg>
