<svg width="64" height="64" viewBox="0 0 64 64" fill="none" xmlns="http://www.w3.org/2000/svg">
<circle cx="32.0568" cy="31.8201" r="31.5" fill="url(#paint0_linear_5_144)"/>
<path d="M41.5568 29.463H38.4146C37.998 29.463 37.5984 29.6235 37.3037 29.9093C37.0091 30.1951 36.8436 30.5826 36.8436 30.9868V34.7962C36.8436 35.2004 37.0091 35.5879 37.3037 35.8737C37.5984 36.1595 37.998 36.32 38.4146 36.32H39.9857C40.4024 36.32 40.802 36.1595 41.0966 35.8737C41.3912 35.5879 41.5568 35.2004 41.5568 34.7962V29.463ZM41.5568 29.463C41.5568 28.2559 41.3104 27.0608 40.8318 25.9466C40.3532 24.8323 39.6518 23.821 38.7681 22.9711C37.8845 22.1211 36.836 21.4492 35.6833 20.9943C34.5306 20.5393 33.2963 20.3103 32.0519 20.3203C30.8082 20.3115 29.575 20.5415 28.4234 20.997C27.2718 21.4526 26.2245 22.1246 25.3419 22.9745C24.4593 23.8243 23.7588 24.8352 23.2808 25.9488C22.8028 27.0624 22.5567 28.2567 22.5568 29.463V34.7962C22.5568 35.2004 22.7223 35.5879 23.0169 35.8737C23.3115 36.1595 23.7112 36.32 24.1278 36.32H25.6989C26.1156 36.32 26.5152 36.1595 26.8098 35.8737C27.1044 35.5879 27.2699 35.2004 27.2699 34.7962V30.9868C27.2699 30.5826 27.1044 30.1951 26.8098 29.9093C26.5152 29.6235 26.1156 29.463 25.6989 29.463H22.5568" stroke="#1C1F35" stroke-width="2" stroke-linecap="round" stroke-linejoin="round"/>
<path d="M41.5568 35.32V37.4629C41.5568 38.2206 41.2177 38.9474 40.6143 39.4832C40.0108 40.019 39.1923 40.32 38.3389 40.32H32.5568" stroke="#1C1F35" stroke-width="2" stroke-linecap="round" stroke-linejoin="round"/>
<defs>
<linearGradient id="paint0_linear_5_144" x1="-1.22932" y1="13.9701" x2="78.0252" y2="19.5983" gradientUnits="userSpaceOnUse">
<stop stop-color="#FFB629"/>
<stop offset="0.507189" stop-color="#FFDA56"/>
<stop offset="1" stop-color="#FFD7A6"/>
</linearGradient>
</defs>
</svg>
